<?xml version="1.0" encoding="UTF-8"?>
<svg version="1.1" id="Layer_1" xmlns="http://www.w3.org/2000/svg"
    xmlns:xlink="http://www.w3.org/1999/xlink" x="0px" y="0px" viewBox="0 0 64 64"
    style="enable-background:new 0 0 20 20;" xml:space="preserve">
    <defs><linearGradient id="ps-plus__a" x1="12.926%" x2="75.728%" y1="21.366%" y2="86.469%"><stop offset="0%" stop-color="#C3862C"></stop><stop offset="100%" stop-color="#986D29"></stop></linearGradient><linearGradient id="ps-plus__b" x1="10.369%" x2="88.542%" y1="20.591%" y2="78.732%"><stop offset="0%" stop-color="#FDE64E"></stop><stop offset="100%" stop-color="#FCC013"></stop></linearGradient></defs>
    <g fill="none" fill-rule="evenodd">
        <path fill="url(#ps-plus__a)"
            d="M26.047 0a1.452 1.452 0 00-.172.014L15.537 1.417c-.2.027-.385.093-.549.188a1.483 1.483 0 00-.42.37l-2.83 3.677c-.228.295-.34.673-.286 1.068l1.156 8.375-8.51 1.156a1.475 1.475 0 00-.969.557c-.056.073-.081.163-.122.247.04-.084.066-.175.122-.247l-2.83 3.678a1.425 1.425 0 00-.286 1.067l1.405 10.18c.055.394.266.73.564.953.297.222.683.333 1.083.278l11.79-1.6 1.6 11.608c.055.394.266.73.565.953.24.18.54.287.858.292h.05c.059 0 .116-.005.175-.013L28.44 42.8c.401-.055.742-.265.969-.558l2.831-3.678a1.44 1.44 0 00.247-.496 1.38 1.38 0 00.037-.571l-1.154-8.376 8.51-1.154c.4-.055.74-.265.967-.558l2.83-3.678.002-.001a1.44 1.44 0 00.249-.496c.049-.18.064-.373.037-.57l-1.406-10.181a1.425 1.425 0 00-.564-.952 1.47 1.47 0 00-1.084-.28l-11.788 1.602-1.601-11.609a1.427 1.427 0 00-.565-.953 1.47 1.47 0 00-.85-.292h-.06z"
            transform="translate(10 10)"></path>
        <path fill="url(#ps-plus__b)"
            d="M26.047 0a1.452 1.452 0 00-.172.014L15.537 1.417c-.2.027-.385.093-.549.188a1.447 1.447 0 00-.668.865 1.438 1.438 0 00-.037.572l1.603 11.608-11.789 1.6c-.2.028-.385.093-.548.19a1.434 1.434 0 00-.667.864c-.05.181-.065.374-.037.573l1.404 10.179c.055.393.266.728.565.952.298.222.683.333 1.082.28l11.789-1.6 1.602 11.607c.054.394.266.73.564.952.298.222.682.334 1.084.28l10.337-1.405a1.48 1.48 0 00.969-.557 1.44 1.44 0 00.246-.496c.051-.18.065-.374.038-.571L30.923 25.89l11.788-1.6a1.46 1.46 0 00.968-.56 1.44 1.44 0 00.249-.495c.049-.181.064-.373.037-.57l-1.406-10.181a1.425 1.425 0 00-.564-.952 1.47 1.47 0 00-1.083-.28l-11.789 1.602-1.601-11.609a1.427 1.427 0 00-.565-.953 1.47 1.47 0 00-.85-.292h-.06z"
            transform="translate(10 10)"></path>
        <path fill="#C3862C"
            d="M37.782 38.669l1.227.924-2.726 3.562 3.59 2.705-.93 1.217-3.592-2.704-2.728 3.561-1.226-.924 2.727-3.562-3.592-2.704.932-1.218 3.591 2.706 2.727-3.563zM23.73 27.4l1.133 8.213-8.28 1.123-1.134-8.212L23.73 27.4zm-1.317 1.721l-5.228.71.716 5.184 5.226-.71-.714-5.184zm28.582-1.239c.344 2.491-1.414 4.788-3.926 5.13-2.512.34-4.828-1.404-5.172-3.895-.344-2.492 1.415-4.787 3.926-5.128 2.513-.341 4.828 1.401 5.172 3.893zm-4.963-2.38c-1.666.226-2.836 1.756-2.609 3.408.23 1.653 1.77 2.813 3.437 2.586 1.666-.226 2.836-1.754 2.609-3.407-.23-1.652-1.77-2.813-3.437-2.587zM30.855 12.646l6.382 7.98L27.1 22.002l3.756-9.356zm.447 3.018l-1.794 4.468 4.843-.657-3.049-3.811z"></path>
    </g>
</svg>