<?xml version="1.0" encoding="UTF-8"?>
<!-- Generator: Adobe Illustrator 23.0.0, SVG Export Plug-In . SVG Version: 6.00 Build 0)  -->
<svg version="1.1" id="Layer_1" xmlns="http://www.w3.org/2000/svg" xmlns:xlink="http://www.w3.org/1999/xlink" x="0px" y="0px" viewBox="0 0 20 20" style="enable-background:new 0 0 20 20;" xml:space="preserve">
<style type="text/css">
	.st0{fill:#24ACE3;}
	.st1{fill:#FFFFFF;}
</style>
<g>
	<g>
		<path class="st1" d="M10,0C4.7,0,0.4,4.1,0,9.2l5.4,2.2c0.5-0.3,1-0.5,1.6-0.5c0.1,0,0.1,0,0.2,0l2.4-3.5c0,0,0,0,0,0    c0-2.1,1.7-3.8,3.8-3.8c2.1,0,3.8,1.7,3.8,3.8c0,2.1-1.7,3.8-3.8,3.8c0,0-0.1,0-0.1,0l-3.4,2.4c0,0,0,0.1,0,0.1    c0,1.6-1.3,2.8-2.8,2.8c-1.4,0-2.5-1-2.8-2.3l-3.8-1.6C1.5,17,5.4,20,10,20c5.5,0,10-4.5,10-10C20,4.5,15.5,0,10,0z"/>
		<path class="st1" d="M6.3,15.2L5,14.7c0.2,0.5,0.6,0.8,1.1,1c1.1,0.5,2.3-0.1,2.8-1.1c0.2-0.5,0.2-1.1,0-1.6    c-0.2-0.5-0.6-0.9-1.1-1.2c-0.5-0.2-1.1-0.2-1.6,0l1.3,0.5c0.8,0.3,1.2,1.3,0.8,2C8,15.2,7.1,15.5,6.3,15.2z"/>
		<path class="st1" d="M15.8,7.4c0-1.4-1.1-2.5-2.5-2.5S10.8,6,10.8,7.4s1.1,2.5,2.5,2.5S15.8,8.8,15.8,7.4z M11.4,7.4    c0-1,0.8-1.9,1.9-1.9c1,0,1.9,0.8,1.9,1.9c0,1-0.8,1.9-1.9,1.9C12.2,9.3,11.4,8.5,11.4,7.4z"/>
	</g>
</g>
</svg>